<svg width="60" height="60" viewBox="0 0 60 60" fill="none" xmlns="http://www.w3.org/2000/svg">
<path d="M30 1.875C25.5499 1.875 21.1998 3.1946 17.4997 5.66693C13.7996 8.13927 10.9157 11.6533 9.21272 15.7646C7.50975 19.876 7.06417 24.4 7.93234 28.7645C8.80051 33.1291 10.9434 37.1382 14.0901 40.2849C17.2368 43.4316 21.2459 45.5745 25.6105 46.4427C29.9751 47.3108 34.4991 46.8653 38.6104 45.1623C42.7217 43.4593 46.2357 40.5754 48.7081 36.8753C51.1804 33.1752 52.5 28.8251 52.5 24.375C52.5 18.4076 50.1295 12.6847 45.9099 8.4651C41.6903 4.24553 35.9674 1.875 30 1.875ZM30 43.125C26.2916 43.125 22.6665 42.0253 19.5831 39.9651C16.4996 37.9048 14.0964 34.9764 12.6773 31.5503C11.2581 28.1242 10.8868 24.3542 11.6103 20.7171C12.3338 17.0799 14.1195 13.739 16.7418 11.1167C19.364 8.49451 22.7049 6.70875 26.3421 5.98528C29.9792 5.2618 33.7492 5.63312 37.1753 7.05226C40.6014 8.4714 43.5298 10.8746 45.5901 13.9581C47.6503 17.0415 48.75 20.6666 48.75 24.375C48.75 26.8373 48.265 29.2755 47.3228 31.5503C46.3805 33.8252 44.9994 35.8922 43.2583 37.6333C41.5172 39.3744 39.4502 40.7555 37.1753 41.6977C34.9005 42.64 32.4623 43.125 30 43.125Z" fill="#24272A"/>
<path d="M40.5568 15.9197L35.0631 18.1134L31.6693 11.5884C31.512 11.2813 31.2729 11.0236 30.9785 10.8436C30.6841 10.6636 30.3457 10.5684 30.0006 10.5684C29.6555 10.5684 29.3171 10.6636 29.0227 10.8436C28.7282 11.0236 28.4892 11.2813 28.3318 11.5884L24.9381 18.1134L19.4443 15.9197C19.1285 15.8058 18.7879 15.7787 18.4581 15.8414C18.1283 15.9041 17.8213 16.0541 17.5693 16.2759C17.2819 16.4941 17.0636 16.7907 16.9405 17.1299C16.8175 17.4692 16.7949 17.8367 16.8756 18.1884L19.7443 27.9759C19.8612 28.378 20.1094 28.7294 20.4492 28.974C20.789 29.2187 21.2009 29.3426 21.6193 29.3259H38.3818C38.8002 29.3426 39.2122 29.2187 39.552 28.974C39.8918 28.7294 40.1399 28.378 40.2568 27.9759L43.1256 18.1884C43.2244 17.8511 43.2264 17.4928 43.1313 17.1543C43.0363 16.8159 42.848 16.511 42.588 16.2745C42.3279 16.0379 42.0067 15.8792 41.6608 15.8165C41.3149 15.7537 40.9584 15.7895 40.6318 15.9197H40.5568ZM36.9756 25.5759H23.0256L21.6381 20.8322L25.1068 22.2197C25.5397 22.3928 26.0215 22.3984 26.4583 22.2355C26.8951 22.0726 27.2556 21.7527 27.4693 21.3384L30.0006 16.5009L32.5318 21.3384C32.7456 21.7527 33.106 22.0726 33.5428 22.2355C33.9796 22.3984 34.4615 22.3928 34.8943 22.2197L38.3631 20.8322L36.9756 25.5759Z" fill="#24272A"/>
<path d="M37.5 33.0742H22.5C22.0027 33.0742 21.5258 33.2718 21.1742 33.6234C20.8225 33.975 20.625 34.4519 20.625 34.9492C20.625 35.4465 20.8225 35.9234 21.1742 36.275C21.5258 36.6267 22.0027 36.8242 22.5 36.8242H37.5C37.9973 36.8242 38.4742 36.6267 38.8258 36.275C39.1775 35.9234 39.375 35.4465 39.375 34.9492C39.375 34.4519 39.1775 33.975 38.8258 33.6234C38.4742 33.2718 37.9973 33.0742 37.5 33.0742Z" fill="#24272A"/>
<path d="M7.98714 38.6055L2.11839 48.7492C1.95382 49.0343 1.86719 49.3576 1.86719 49.6867C1.86719 50.0159 1.95382 50.3392 2.11839 50.6242C2.28359 50.9104 2.52146 51.1478 2.80791 51.3124C3.09437 51.477 3.41925 51.563 3.74964 51.5617H10.2371L13.4996 57.1867C13.6632 57.4701 13.8982 57.7057 14.181 57.8702C14.4639 58.0347 14.7849 58.1222 15.1121 58.1242C15.4425 58.1255 15.7674 58.0395 16.0539 57.8749C16.3403 57.7103 16.5782 57.4729 16.7434 57.1867L21.3934 49.143C15.8765 47.2202 11.1587 43.512 7.98714 38.6055Z" fill="#ff6e3c"/>
<path d="M57.8805 48.7492L52.0117 38.6055C48.8401 43.512 44.1223 47.2202 38.6055 49.143L43.2555 57.1867C43.4207 57.4729 43.6585 57.7103 43.945 57.8749C44.2315 58.0395 44.5563 58.1255 44.8867 58.1242C45.2139 58.1222 45.5349 58.0347 45.8178 57.8702C46.1007 57.7057 46.3356 57.4701 46.4992 57.1867L49.7617 51.5617H56.2492C56.5796 51.563 56.9045 51.477 57.1909 51.3124C57.4774 51.1478 57.7153 50.9104 57.8805 50.6242C58.045 50.3392 58.1317 50.0159 58.1317 49.6867C58.1317 49.3576 58.045 49.0343 57.8805 48.7492Z" fill="#ff6e3c"/>
</svg>
