<svg id="wave" style="transform:rotate(0deg); transition: 0.3s" viewBox="0 0 1440 300" version="1.1" xmlns="http://www.w3.org/2000/svg"><defs><linearGradient id="sw-gradient-0" x1="0" x2="0" y1="1" y2="0"><stop stop-color="#00BEF9" offset="0%"></stop><stop stop-color="#ffff" offset="100%"></stop></linearGradient></defs><path style="transform:translate(0, 0px); opacity:1" fill="url(#sw-gradient-0)" d="M0,120L40,130C80,140,160,160,240,175C320,190,400,200,480,175C560,150,640,90,720,80C800,70,880,110,960,115C1040,120,1120,90,1200,65C1280,40,1360,20,1440,45C1520,70,1600,140,1680,150C1760,160,1840,110,1920,80C2000,50,2080,40,2160,70C2240,100,2320,170,2400,210C2480,250,2560,260,2640,245C2720,230,2800,190,2880,180C2960,170,3040,190,3120,180C3200,170,3280,130,3360,120C3440,110,3520,130,3600,145C3680,160,3760,170,3840,150C3920,130,4000,80,4080,75C4160,70,4240,110,4320,115C4400,120,4480,90,4560,70C4640,50,4720,40,4800,75C4880,110,4960,190,5040,230C5120,270,5200,270,5280,250C5360,230,5440,190,5520,170C5600,150,5680,150,5720,150L5760,150L5760,300L5720,300C5680,300,5600,300,5520,300C5440,300,5360,300,5280,300C5200,300,5120,300,5040,300C4960,300,4880,300,4800,300C4720,300,4640,300,4560,300C4480,300,4400,300,4320,300C4240,300,4160,300,4080,300C4000,300,3920,300,3840,300C3760,300,3680,300,3600,300C3520,300,3440,300,3360,300C3280,300,3200,300,3120,300C3040,300,2960,300,2880,300C2800,300,2720,300,2640,300C2560,300,2480,300,2400,300C2320,300,2240,300,2160,300C2080,300,2000,300,1920,300C1840,300,1760,300,1680,300C1600,300,1520,300,1440,300C1360,300,1280,300,1200,300C1120,300,1040,300,960,300C880,300,800,300,720,300C640,300,560,300,480,300C400,300,320,300,240,300C160,300,80,300,40,300L0,300Z"></path></svg>