<svg width="1920" height="1080" viewBox="0 0 1920 1080" xmlns="http://www.w3.org/2000/svg"><rect width="1920" height="1080" fill="#009de0"/><path d="M 0,1080 C 0,1080 0,216 0,216 C 148.5756430251923,190.42830896930926 297.1512860503846,164.8566179386185 394,158 C 490.8487139496154,151.1433820613815 535.9704988236538,163.00183721483518 504,160 C 472.0295011763462,156.99816278516482 362.96671865500025,139.13603320204078 460,151 C 557.0332813449998,162.86396679795922 860.1626265563457,204.45402997700177 973,227 C 1085.8373734436543,249.54597002299823 1008.3827751196171,253.04784688995215 1012,258 C 1015.6172248803829,262.95215311004785 1100.3062729651856,269.3545824631896 1170,276 C 1239.6937270348144,282.6454175368104 1294.3921330196413,289.53382325728944 1417,271 C 1539.6078669803587,252.4661767427106 1730.1251949562507,208.51012450765285 1839,197 C 1947.8748050437493,185.48987549234715 1975.1070871553568,206.42567871209917 1975,215 C 1974.8929128446432,223.57432128790083 1947.4464564223217,219.78716064395041 1920,216 C 1920,216 1920,1080 1920,1080 Z" fill="#3d1053" opacity="0.12"/><path d="M 0,1080 C 0,1080 0,432 0,432 C 111.64736049062888,399.82342911522903 223.29472098125777,367.6468582304581 224,376 C 224.70527901874223,384.3531417695419 114.46847656559783,433.2359961933966 246,454 C 377.5315234344022,474.7640038066034 750.831372756351,467.4091569959554 807,464 C 863.168627243649,460.5908430040446 602.2060324089985,461.1273758227815 668,464 C 733.7939675910015,466.8726241772185 1126.3444976076553,472.08133971291875 1226,490 C 1325.6555023923447,507.91866028708125 1132.4159771603797,538.5472653255439 1133,509 C 1133.5840228396203,479.4527346744561 1327.9915937508263,389.7295989849058 1491,390 C 1654.0084062491737,390.2704010150942 1785.6176478363159,480.5343387348331 1866,489 C 1946.3823521636841,497.4656612651669 1975.5378149039097,424.133046075762 1976,401 C 1976.4621850960903,377.866953924238 1948.2310925480451,404.933476962119 1920,432 C 1920,432 1920,1080 1920,1080 Z" fill="#3d1053" opacity="0.24"/><path d="M 0,1080 C 0,1080 0,648 0,648 C 85.73500489042799,669.9084036056993 171.47000978085597,691.8168072113987 207,684 C 242.52999021914403,676.1831927886013 227.85496576700405,638.6411747601047 273,654 C 318.14503423299595,669.3588252398953 423.1101271511276,737.6184937481825 508,719 C 592.8898728488724,700.3815062518175 657.7045256284861,594.884850247165 736,593 C 814.2954743715139,591.115149752835 906.0717703349283,692.8421052631579 953,715 C 999.9282296650717,737.1578947368421 1002.008393031801,679.7467287002036 1119,651 C 1235.991606968199,622.2532712997964 1467.894657537868,622.1709799360278 1566,621 C 1664.105342462132,619.8290200639722 1628.4129768167277,617.5693515556848 1721,632 C 1813.5870231832723,646.4306484443152 2034.4534351952207,677.551613841233 2089,683 C 2143.5465648047793,688.448386158767 2031.7732824023897,668.2241930793834 1920,648 C 1920,648 1920,1080 1920,1080 Z" fill="#3d1053" opacity="0.36"/><path d="M 0,1080 C 0,1080 0,864 0,864 C 29.124917391419274,883.28706812234 58.24983478283855,902.57413624468 162,888 C 265.75016521716145,873.42586375532 444.125578260065,824.9905231436201 562,844 C 679.874421739935,863.0094768563799 737.2478521769012,949.4637711808401 783,936 C 828.7521478230988,922.5362288191599 862.8830130323298,809.1543921330197 866,791 C 869.1169869676702,772.8456078669803 841.2200956937799,849.9186602870814 919,876 C 996.7799043062201,902.0813397129186 1180.2366041925507,877.170966718655 1285,853 C 1389.7633958074493,828.829033281345 1415.8334875360174,805.3974728382988 1439,805 C 1462.1665124639826,804.6025271617012 1482.4294456633797,827.2391419281503 1576,855 C 1669.5705543366203,882.7608580718497 1836.4487298104627,915.6459594490999 1906,918 C 1975.5512701895373,920.3540405509001 1947.7756350947686,892.1770202754501 1920,864 C 1920,864 1920,1080 1920,1080 Z" fill="#3d1053" opacity="0.48"/></svg>